<svg width="169" height="51" viewBox="0 0 169 51" fill="none" xmlns="http://www.w3.org/2000/svg">
<path d="M5.00083 38.2315H15.4605V41.4475H5.00083V38.2315ZM5.3014 47.2484H17.1737V50.5246H1.39404V29.485H16.7529V32.7612H5.3014V47.2484Z" fill="black"/>
<path d="M31.514 50.5246L40.3807 38.3216V41.2672L31.9348 29.485H36.3531L42.6349 38.2014L40.8315 38.2315L47.0532 29.485H51.2912L42.9054 41.0568V38.2315L51.8322 50.5246H47.3238L40.7113 41.2672H42.4847L35.9624 50.5246H31.514Z" fill="black"/>
<path d="M68.5244 50.735C67.8432 50.735 67.2621 50.5046 66.7812 50.0437C66.3003 49.5628 66.0598 48.9617 66.0598 48.2403C66.0598 47.4789 66.3003 46.8777 66.7812 46.4369C67.2621 45.9761 67.8432 45.7456 68.5244 45.7456C69.2057 45.7456 69.7868 45.9761 70.2677 46.4369C70.7486 46.8777 70.9891 47.4789 70.9891 48.2403C70.9891 48.9617 70.7486 49.5628 70.2677 50.0437C69.7868 50.5046 69.2057 50.735 68.5244 50.735Z" fill="black"/>
<path d="M87.7949 50.5246V29.485H91.7023V47.2184H102.703V50.5246H87.7949Z" fill="black"/>
<path d="M122.169 38.2315H132.628V41.4475H122.169V38.2315ZM122.469 47.2484H134.341V50.5246H118.562V29.485H133.921V32.7612H122.469V47.2484Z" fill="black"/>
<path d="M148.682 50.5246L157.548 38.3216V41.2672L149.103 29.485H153.521L159.803 38.2014L157.999 38.2315L164.221 29.485H168.459L160.073 41.0568V38.2315L169 50.5246H164.492L157.879 41.2672H159.652L153.13 50.5246H148.682Z" fill="black"/>
<circle cx="9.58947" cy="10.3061" r="9.58947" fill="#F81050"/>
<circle cx="41.936" cy="10.3061" r="9.58947" fill="#A8DDFF"/>
<circle cx="90.3128" cy="10.3061" r="9.58947" fill="#FFCCDF"/>
</svg>
